# xmcd CD database file
#
# Track frame offsets:
#	150
#	36837
#	52580
#	78472
#	108027
#	143317
#	161025
#	181017
#	207170
#	232480
#
# Disc length: 3388 seconds
#
# Revision: 0
# Processed by: cddbd v1.5.2PL0 Copyright (c) Steve Scherf et al.
# Submitted via: CDex 1.70beta2
#
DISCID=750d3a0a
DTITLE=大隅寿男トリオ - グレイトフル
DYEAR=2002
DGENRE=Jazz
TTITLE0=COMPARED TO WHAT
TTITLE1=LITTLE GIRL BLUE
TTITLE2=WATERMELON MAN
TTITLE3=SONG FROM THE OLD COUNTRY
TTITLE4=NEARNESS OF YOU
TTITLE5=PERDIDO
TTITLE6=MAS QUE NADA
TTITLE7=LAST WALTZ
TTITLE8=SISTER SADIE
TTITLE9=THE ROSE
EXTD=YEAR: 2002
EXTT0=
EXTT1=
EXTT2=
EXTT3=
EXTT4=
EXTT5=
EXTT6=
EXTT7=
EXTT8=
EXTT9=
PLAYORDER=
